<svg class="svg-icon" style="width: 1em; height: 1em;vertical-align: middle;fill: currentColor;overflow: hidden;" viewBox="0 0 1024 1024" version="1.1" xmlns="http://www.w3.org/2000/svg"><path d="M512 0.994175C375.380505 0.994175 247.01266 54.192466 150.607534 150.617476 54.182524 247.01266 0.994175 375.390447 0.994175 512c0 136.619495 53.198291 264.98734 149.613359 361.392466 99.646136 99.656078 230.519301 149.354874 361.392466 149.354874 130.873165 0 261.74633-49.698796 361.392466-149.354874C970.056078 776.748738 1023.005825 648.370951 1023.005825 512c0-136.370951-52.949748-264.748738-149.613359-361.392466C776.748738 53.943922 648.609553 0.994175 512 0.994175zM193.068738 830.931262C107.887845 745.780194 60.942913 632.643107 60.942913 512c0-6.740505 0.745631-13.232466 0.994174-19.734369 126.628039-6.243417 248.762408 40.462913 339.172661 130.634563C491.52 713.290563 537.977786 835.673476 531.982913 962.062913c-122.134369 5.239301-245.76-37.967534-338.914175-131.131651z m637.862524 0c-67.424932 67.444816-151.09468 108.653359-238.502524 124.381204 3.986641-139.860505-48.714563-274.978796-148.857787-375.131961C343.417786 480.02734 208.299495 427.833165 68.429049 431.829748c15.98633-89.913165 58.696078-172.837282 124.629747-238.770952 65.93367-65.93367 148.857786-108.643417 238.770952-124.629747-3.996583 139.870447 48.456078 274.988738 148.599301 375.141902 96.663612 96.65367 225.777087 149.851961 360.149747 149.851962 5.000699 0 9.991456-0.755573 14.992155-0.755573-16.234874 89.674563-58.696078 172.588738-124.629747 238.273864z m131.131651-298.948349c-126.379495 5.994874-248.762408-40.462913-339.172661-130.873165-90.161709-90.17165-136.619495-212.544621-130.624621-338.914175 6.501903-0.258485 12.993864-1.004117 19.734369-1.004117 120.384621 0 233.770252 46.954874 318.931262 132.125826 85.170951 85.16101 132.125825 198.298097 132.125825 318.931262 0 6.491961-0.745631 12.983922-0.994174 19.734369z" fill="#2E323F" /></svg>